<svg xmlns="http://www.w3.org/2000/svg" viewBox="0 0 210 195" style="height:100%;width:100%"><path d="M208.8 194.3h-20.3c0-10-11.6-18.2-34.8-24.4-9.7-2.7-31.2-6.5-64.4-11.5-23.2-3.6-34.8-7-34.8-10.7 0-5.8 14.2-10.5 42.7-14.2H69.7C41.3 136 27 141.2 27 148.8c0 7 8.2 12.5 24.6 16.8L97 176.2c16.3 4.7 24.5 10.7 24.5 18H1.2V97.8h42.3V73L38 77.8 26.4 61.3 105 .7 128.8 19V.7h21.5v35l33 25.6-11.5 16.4-5.6-4.6v24.7h42.6v96.6zM177.4 61.7l-30.5-24v-34h-15v22.6L105 5 32.3 61.8 39 71l8.6-7.2v68.8h22v-56h27.6v56H162V63.8l8.8 7.3 6.6-9.3zm-28 48.4H113V76.6h36V110z"/></svg>